<svg width="80" height="80" viewBox="0 0 80 80" fill="none" xmlns="http://www.w3.org/2000/svg">
<path d="M73.8942 0H6.10581C2.73366 0 0 2.73366 0 6.10581V73.8942C0 77.2663 2.73366 80 6.10581 80H73.8942C77.2663 80 80 77.2663 80 73.8942V6.10581C80 2.73366 77.2663 0 73.8942 0Z" fill="white"/>
<g clip-path="url(#clip0_195_18)">
<mask id="mask0_195_18" style="mask-type:luminance" maskUnits="userSpaceOnUse" x="16" y="16" width="48" height="48">
<path d="M64 16H16V64H64V16Z" fill="white"/>
</mask>
<g mask="url(#mask0_195_18)">
<path d="M43.5268 16H63.2728C63.6743 16 64 16.3256 64 16.7273V46.9038C64 47.6267 63.0599 47.9068 62.6641 47.302L42.9181 17.1255C42.6018 16.6418 42.9489 16 43.5268 16Z" fill="#246DFF"/>
<path d="M36.4732 16H16.7273C16.3256 16 16 16.3256 16 16.7273V46.9038C16 47.6267 16.9401 47.9068 17.3358 47.302L37.0817 17.1255C37.3982 16.6418 37.0512 16 36.4732 16Z" fill="#20A34E"/>
<path d="M39.6619 40.1602L17.2305 62.7603C16.775 63.2192 17.1001 63.9999 17.7467 63.9999H62.2721C62.916 63.9999 63.2421 63.2247 62.7921 62.7644L40.698 40.1643C40.4143 39.8739 39.9478 39.8721 39.6619 40.1602Z" fill="#F86606"/>
</g>
</g>
<defs>
<clipPath id="clip0_195_18">
<rect width="48" height="48" fill="white" transform="translate(16 16)"/>
</clipPath>
</defs>
</svg>
